<svg width="95" height="97" viewBox="0 0 95 97" fill="none" xmlns="http://www.w3.org/2000/svg">
<path d="M43.7667 46.9C42.918 46.9 42.104 46.5629 41.5039 45.9627C40.9038 45.3626 40.5667 44.5487 40.5667 43.7C40.5667 42.8513 40.9038 42.0374 41.5039 41.4373C42.104 40.8371 42.918 40.5 43.7667 40.5H51.2333C52.082 40.5 52.8959 40.8371 53.4961 41.4373C54.0962 42.0374 54.4333 42.8513 54.4333 43.7C54.4333 44.5487 54.0962 45.3626 53.4961 45.9627C52.8959 46.5629 52.082 46.9 51.2333 46.9H49.1V44.2333C49.1 43.5261 48.819 42.8478 48.3189 42.3477C47.8188 41.8476 47.1406 41.5667 46.4333 41.5667C45.7261 41.5667 45.0478 41.8476 44.5477 42.3477C44.0476 42.8478 43.7667 43.5261 43.7667 44.2333V46.9Z" fill="white"/>
<path d="M46.4333 42.6333C46.0089 42.6333 45.602 42.8019 45.3019 43.102C45.0019 43.402 44.8333 43.809 44.8333 44.2333V49.0867C44.231 49.2096 43.6896 49.5369 43.3009 50.0131C42.9121 50.4893 42.6998 51.0853 42.7 51.7C42.7 52.973 43.2057 54.1939 44.1058 55.0941C45.006 55.9943 46.2269 56.5 47.5 56.5H48.0333C49.4478 56.5 50.8043 55.9381 51.8045 54.9379C52.8047 53.9377 53.3666 52.5812 53.3666 51.1667V50.2568C53.3666 49.6494 53.1253 49.0669 52.6959 48.6374C52.2664 48.2079 51.6839 47.9667 51.0765 47.9667H48.0333V44.2333C48.0333 43.809 47.8647 43.402 47.5647 43.102C47.2646 42.8019 46.8576 42.6333 46.4333 42.6333Z" fill="white"/>
</svg>
